<svg width="48" height="48" viewBox="0 0 48 48" fill="none" xmlns="http://www.w3.org/2000/svg">
<path d="M33.938 33.854C34.447 34.3254 35.0465 34.6885 35.7 34.9213C36.3536 35.154 37.0476 35.2516 37.74 35.208C38.8373 35.2359 39.9132 34.902 40.802 34.258C41.526 33.788 42.074 33.09 42.36 32.278H47.53C46.9792 34.5935 45.6347 36.6428 43.73 38.07C41.9016 39.2833 39.7413 39.8984 37.548 39.83C35.9827 39.8504 34.4292 39.5559 32.98 38.964C31.6685 38.4176 30.4923 37.591 29.534 36.542C28.5796 35.4432 27.8462 34.1706 27.374 32.794C26.8446 31.2548 26.5854 29.6356 26.608 28.008C26.598 26.408 26.866 24.818 27.4 23.31C28.1202 21.1895 29.492 19.3508 31.3195 18.0563C33.1469 16.7619 35.3367 16.0779 37.576 16.102C39.2299 16.0677 40.8653 16.4552 42.328 17.228C43.65 17.952 44.79 18.968 45.664 20.198C46.5569 21.4879 47.1968 22.9355 47.55 24.464C47.938 26.106 48.076 27.796 47.96 29.48H32.562C32.436 31.06 32.93 32.628 33.938 33.854ZM13.894 8.168C15.1906 8.14452 16.4853 8.27748 17.75 8.564C18.8154 8.79612 19.8268 9.22918 20.73 9.84C21.566 10.446 22.226 11.262 22.646 12.204C23.128 13.362 23.36 14.61 23.328 15.864C23.3838 17.2424 23.0318 18.6067 22.316 19.786C21.5643 20.8992 20.5257 21.7886 19.31 22.36C20.9605 22.8046 22.3981 23.8237 23.364 25.234C24.292 26.728 24.758 28.464 24.704 30.222C24.7358 31.6235 24.4464 33.0136 23.858 34.286C23.3149 35.3973 22.5181 36.3653 21.532 37.112C20.5185 37.8519 19.3775 38.399 18.166 38.726C16.9103 39.0739 15.613 39.2482 14.31 39.244H0V8.168H13.894ZM13.424 33.968C14.04 33.976 14.656 33.91 15.256 33.77C15.8047 33.6494 16.3249 33.424 16.788 33.106C17.244 32.79 17.61 32.364 17.856 31.868C18.14 31.234 18.272 30.542 18.238 29.85C18.2999 29.2182 18.2163 28.5806 17.9938 27.9861C17.7712 27.3916 17.4155 26.8559 16.954 26.42C15.9748 25.6998 14.7756 25.3428 13.562 25.41H6.482V33.968H13.424ZM40.694 22.034C40.2632 21.6031 39.745 21.2696 39.1744 21.056C38.6037 20.8424 37.9939 20.7538 37.386 20.796C36.5789 20.7647 35.7775 20.9432 35.06 21.314C34.4915 21.6266 33.9899 22.0479 33.584 22.554C33.2224 23.0273 32.9536 23.5647 32.792 24.138C32.644 24.616 32.552 25.108 32.518 25.606H42.056C41.9724 24.3066 41.4992 23.0625 40.698 22.036L40.694 22.034ZM13.068 20.738C14.0873 20.7797 15.0907 20.4744 15.914 19.872C16.712 19.162 17.128 18.112 17.034 17.046C17.0599 16.4321 16.9378 15.8209 16.678 15.264C16.4563 14.8216 16.1129 14.4517 15.688 14.198C15.2571 13.9187 14.7729 13.7321 14.266 13.65C13.7161 13.5425 13.1563 13.4935 12.596 13.504H6.482V20.766H13.068V20.738ZM43.24 10.244H31.288V13.298H43.24V10.244Z" fill="#1769FF"/>
</svg>
