<svg width="48" height="48" viewBox="0 0 48 48" fill="none" xmlns="http://www.w3.org/2000/svg">
<g clip-path="url(#clip0_1_13)">
<path d="M24 48C10.77 48 0 37.23 0 24C0 10.77 10.77 0 24 0C37.23 0 48 10.77 48 24C48 37.23 37.23 48 24 48ZM44.24 27.284C43.54 27.064 37.9 25.378 31.472 26.408C34.152 33.776 35.246 39.776 35.456 41.024C40.056 37.914 43.328 32.984 44.246 27.284H44.24ZM32.01 42.9C31.704 41.1 30.51 34.836 27.63 27.36L27.498 27.4C15.918 31.43 11.778 39.45 11.418 40.2C14.878 42.916 19.258 44.532 23.998 44.532C26.838 44.532 29.538 43.952 31.998 42.904L32.01 42.9ZM8.77 37.74C9.234 36.94 14.86 27.63 25.434 24.21C25.704 24.12 25.974 24.042 26.244 23.97C25.724 22.8 25.164 21.636 24.58 20.49C14.34 23.55 4.412 23.42 3.512 23.4L3.504 24.024C3.504 29.29 5.5 34.098 8.772 37.734L8.77 37.74ZM3.93 19.83C4.85 19.846 13.296 19.882 22.884 17.334C19.488 11.298 15.824 6.218 15.284 5.478C9.548 8.178 5.264 13.458 3.932 19.818L3.93 19.83ZM19.2 4.104C19.764 4.864 23.49 9.932 26.844 16.104C34.134 13.374 37.224 9.224 37.59 8.7C33.97 5.48 29.21 3.528 24 3.528C22.35 3.528 20.74 3.728 19.2 4.098V4.104ZM39.87 11.07C39.434 11.65 36 16.056 28.422 19.15C28.902 20.13 29.362 21.12 29.782 22.122C29.942 22.482 30.082 22.842 30.222 23.182C37.042 22.322 43.822 23.702 44.502 23.842C44.462 19.002 42.742 14.562 39.882 11.082L39.87 11.07Z" fill="#EA4C89"/>
</g>
<defs>
<clipPath id="clip0_1_13">
<rect width="48" height="48" fill="white"/>
</clipPath>
</defs>
</svg>
